<svg xmlns="http://www.w3.org/2000/svg" viewBox="0 0 218.775 194.64">
  <path id="heart-preenchido" d="M201.42,19.048A58.829,58.829,0,0,0,157.661,0a55.037,55.037,0,0,0-34.376,11.866,70.329,70.329,0,0,0-13.9,14.511,70.291,70.291,0,0,0-13.9-14.511A55.029,55.029,0,0,0,61.116,0,58.832,58.832,0,0,0,17.354,19.048C6.165,31.188,0,47.772,0,65.749c0,18.5,6.9,35.439,21.7,53.3,13.243,15.979,32.276,32.2,54.317,50.982,7.526,6.414,16.057,13.685,24.915,21.43a12.843,12.843,0,0,0,16.912,0c8.858-7.746,17.394-15.02,24.923-21.438,22.037-18.779,41.071-35,54.313-50.979,14.8-17.861,21.7-34.8,21.7-53.3,0-17.975-6.164-34.559-17.356-46.7Zm0,0" transform="translate(0)" fill="#ffcd00"/>
</svg>
