<svg xmlns="http://www.w3.org/2000/svg" viewBox="0 0 218.775 194.64">
  <path id="heart" class="cls-1" d="M109.388,194.64a12.829,12.829,0,0,1-8.457-3.178c-8.838-7.728-17.359-14.99-24.877-21.4l-.038-.033c-22.041-18.783-41.074-35-54.317-50.982C6.9,101.187,0,84.251,0,65.749c0-17.976,6.164-34.561,17.356-46.7A58.83,58.83,0,0,1,61.117,0,55.029,55.029,0,0,1,95.491,11.866a70.327,70.327,0,0,1,13.9,14.511,70.334,70.334,0,0,1,13.9-14.511A55.029,55.029,0,0,1,157.661,0a58.832,58.832,0,0,1,43.761,19.048c11.191,12.14,17.354,28.724,17.354,46.7,0,18.5-6.893,35.439-21.7,53.3-13.243,15.98-32.274,32.2-54.311,50.98-7.531,6.416-16.065,13.69-24.923,21.437a12.839,12.839,0,0,1-8.456,3.175ZM61.117,12.816A46.155,46.155,0,0,0,26.776,27.735C17.773,37.5,12.814,51,12.814,65.749c0,15.561,5.784,29.478,18.751,45.125C44.1,126,62.741,141.884,84.326,160.28l.04.033c7.546,6.431,16.1,13.722,25,21.507,8.957-7.8,17.524-15.1,25.085-21.543,21.583-18.4,40.224-34.279,52.758-49.4,12.966-15.646,18.749-29.564,18.749-45.125C205.962,51,201,37.5,192,27.735a46.152,46.152,0,0,0-34.339-14.919A42.5,42.5,0,0,0,131.125,22a62.187,62.187,0,0,0-14.788,17.112,8.089,8.089,0,0,1-13.9,0A62.129,62.129,0,0,0,87.651,22a42.5,42.5,0,0,0-26.534-9.187Zm0,0" transform="translate(0 0)" fill="#ffcd00"/>
</svg>
